<svg width="50" height="50" viewBox="0 0 50 50" fill="none" xmlns="http://www.w3.org/2000/svg">
<rect x="0.277405" y="0.838867" width="48.743" height="48.743" rx="24.3715" fill="#0D1B39"/>
<path d="M34.3989 25.2102C34.3989 24.4411 33.7753 23.8176 33.0062 23.8176H26.0429V16.8543C26.0429 16.0851 25.4194 15.4616 24.6503 15.4616C23.8811 15.4616 23.2576 16.0851 23.2576 16.8543V23.8176H16.2943C15.5252 23.8176 14.9016 24.4411 14.9016 25.2102C14.9016 25.9794 15.5252 26.6029 16.2943 26.6029H23.2576V33.5662C23.2576 34.3353 23.8811 34.9588 24.6503 34.9588C25.4194 34.9588 26.0429 34.3353 26.0429 33.5662V26.6029H33.0062C33.7753 26.6029 34.3989 25.9794 34.3989 25.2102Z" fill="white"/>
</svg>
